{
  "asset": {
    "version": "2.0"
  },
  "scene": 0,
  "scenes": [
    {
      "nodes": [0]
    }
  ],
  "nodes": [
    {
      "mesh": 0
    }
  ],
  "meshes": [
    {
      "primitives": [
        {
          "attributes": {
            "POSITION": 1
          },
          "indices": 0
        }
      ]
    }
  ],
  "buffers": [
    {
      "uri": "data:application/octet-stream;base64,",
      "byteLength": 144
    }
  ],
  "bufferViews": [
    {
      "buffer": 0,
      "byteOffset": 0,
      "byteLength": 36,
      "target": 34963
    },
    {
      "buffer": 0,
      "byteOffset": 36,
      "byteLength": 108,
      "target": 34962
    }
  ],
  "accessors": [
    {
      "bufferView": 0,
      "componentType": 5123,
      "count": 18,
      "type": "SCALAR",
      "max": [
        7
      ],
      "min": [
        0
      ]
    },
    {
      "bufferView": 1,
      "componentType": 5126,
      "count": 9,
      "type": "VEC3",
      "max": [
        1,
        1,
        1
      ],
      "min": [
        0,
        0,
        0
      ]
    }
  ]
}
